# xmcd
#
# Track frame offsets:
#	151
#	12667
#	22142
#	33026
#	45717
#	57295
#	68607
#	78909
#	90010
#	101123
#	107214
#	117462
#	125913
#	134936
#	146292
#	154769
#	166858
#	176221
#	186368
#	195898
#	208024
#	216946
#	229796
#	240682
#	248360
#
# Disc length: 3423 seconds
#
# Revision: 1
# Processed by: cddbd v1.4b41PL2 Copyright (c) Steve Scherf et al.
# Submitted via: audiograbber 1.80
#
DISCID=600d5d19
DTITLE=Johnny Cash - The Sun Years Vol. 1
DYEAR=1900
DGENRE=
TTITLE0=I Walk The Line
TTITLE1=Luther Played The Boogie
TTITLE2=Train Of Love
TTITLE3=Next In Line
TTITLE4=Big River
TTITLE5=Don't Make Me Go
TTITLE6=I Was There When It Happened
TTITLE7=Cry! Cry! Cry!
TTITLE8=I Love You Because
TTITLE9=You Tell Me
TTITLE10=The Ways Of A Woman In Love
TTITLE11=The Wreck Of The Old '97
TTITLE12=Two Timin' Woman
TTITLE13=Mean Eyed Cat
TTITLE14=Guess Things Happen That Way
TTITLE15=Home Of The Blues
TTITLE16=I Couldn't Keep From Crying
TTITLE17=Hey Porter
TTITLE18=New Mexico
TTITLE19=You're The Nearest Thing To Heaven
TTITLE20=Katy Too
TTITLE21=Folsom Prison Blues
TTITLE22=I Just Thought You'd Like To Know
TTITLE23=Come In Stranger
TTITLE24=I Forgot To Remember To Forget
EXTD=
EXTT0=
EXTT1=
EXTT2=
EXTT3=
EXTT4=
EXTT5=
EXTT6=
EXTT7=
EXTT8=
EXTT9=
EXTT10=
EXTT11=
EXTT12=
EXTT13=
EXTT14=
EXTT15=
EXTT16=
EXTT17=
EXTT18=
EXTT19=
EXTT20=
EXTT21=
EXTT22=
EXTT23=
EXTT24=
PLAYORDER=
